<?xml version="1.0" encoding="UTF-8" standalone="no"?>
<!DOCTYPE svg PUBLIC "-//W3C//DTD SVG 1.1//EN"
 "http://www.w3.org/Graphics/SVG/1.1/DTD/svg11.dtd">
<!-- Generated by graphviz version 2.40.1 (20161225.0304)
 -->
<!-- Title: %3 Pages: 1 -->
<svg width="1411pt" height="476pt"
 viewBox="0.00 0.00 1411.27 476.00" xmlns="http://www.w3.org/2000/svg" xmlns:xlink="http://www.w3.org/1999/xlink">
<g id="graph0" class="graph" transform="scale(1 1) rotate(0) translate(4 472)">
<title>%3</title>
<polygon fill="#ffffff" stroke="transparent" points="-4,4 -4,-472 1407.2686,-472 1407.2686,4 -4,4"/>
<!-- [root] google_compute_instance.opendj_config_store -->
<g id="node1" class="node">
<title>[root] google_compute_instance.opendj_config_store</title>
<polygon fill="none" stroke="#000000" points="834.7739,-252 554.7797,-252 554.7797,-216 834.7739,-216 834.7739,-252"/>
<text text-anchor="middle" x="694.7768" y="-229.8" font-family="Times,serif" font-size="14.00" fill="#000000">google_compute_instance.opendj_config_store</text>
</g>
<!-- [root] google_compute_subnetwork.dev&#45;subnet -->
<g id="node4" class="node">
<title>[root] google_compute_subnetwork.dev&#45;subnet</title>
<polygon fill="none" stroke="#000000" points="1065.8397,-180 819.7139,-180 819.7139,-144 1065.8397,-144 1065.8397,-180"/>
<text text-anchor="middle" x="942.7768" y="-157.8" font-family="Times,serif" font-size="14.00" fill="#000000">google_compute_subnetwork.dev&#45;subnet</text>
</g>
<!-- [root] google_compute_instance.opendj_config_store&#45;&gt;[root] google_compute_subnetwork.dev&#45;subnet -->
<g id="edge1" class="edge">
<title>[root] google_compute_instance.opendj_config_store&#45;&gt;[root] google_compute_subnetwork.dev&#45;subnet</title>
<path fill="none" stroke="#000000" d="M757.0376,-215.9243C791.5302,-205.9103 834.5798,-193.412 870.5467,-182.97"/>
<polygon fill="#000000" stroke="#000000" points="871.8628,-186.2325 880.4904,-180.0831 869.9111,-179.5101 871.8628,-186.2325"/>
</g>
<!-- [root] google_compute_instance.opendj_cts_store -->
<g id="node2" class="node">
<title>[root] google_compute_instance.opendj_cts_store</title>
<polygon fill="none" stroke="#000000" points="1310.826,-252 1050.7276,-252 1050.7276,-216 1310.826,-216 1310.826,-252"/>
<text text-anchor="middle" x="1180.7768" y="-229.8" font-family="Times,serif" font-size="14.00" fill="#000000">google_compute_instance.opendj_cts_store</text>
</g>
<!-- [root] google_compute_instance.opendj_cts_store&#45;&gt;[root] google_compute_subnetwork.dev&#45;subnet -->
<g id="edge2" class="edge">
<title>[root] google_compute_instance.opendj_cts_store&#45;&gt;[root] google_compute_subnetwork.dev&#45;subnet</title>
<path fill="none" stroke="#000000" d="M1121.0266,-215.9243C1088.0662,-205.9531 1046.964,-193.5188 1012.5373,-183.104"/>
<polygon fill="#000000" stroke="#000000" points="1013.1367,-179.6288 1002.5516,-180.0831 1011.1097,-186.3289 1013.1367,-179.6288"/>
</g>
<!-- [root] google_compute_network.our_development_network -->
<g id="node3" class="node">
<title>[root] google_compute_network.our_development_network</title>
<polygon fill="none" stroke="#000000" points="812.8123,-108 496.7413,-108 496.7413,-72 812.8123,-72 812.8123,-108"/>
<text text-anchor="middle" x="654.7768" y="-85.8" font-family="Times,serif" font-size="14.00" fill="#000000">google_compute_network.our_development_network</text>
</g>
<!-- [root] provider.google -->
<g id="node6" class="node">
<title>[root] provider.google</title>
<polygon fill="none" stroke="#000000" points="550.7768,-36 457.4904,-18 550.7768,0 644.0632,-18 550.7768,-36"/>
<text text-anchor="middle" x="550.7768" y="-13.8" font-family="Times,serif" font-size="14.00" fill="#000000">provider.google</text>
</g>
<!-- [root] google_compute_network.our_development_network&#45;&gt;[root] provider.google -->
<g id="edge3" class="edge">
<title>[root] google_compute_network.our_development_network&#45;&gt;[root] provider.google</title>
<path fill="none" stroke="#000000" d="M628.5332,-71.8314C613.7445,-61.593 595.2374,-48.7804 579.9891,-38.2239"/>
<polygon fill="#000000" stroke="#000000" points="581.6546,-35.12 571.4404,-32.3056 577.6701,-40.8754 581.6546,-35.12"/>
</g>
<!-- [root] var.network_name -->
<g id="node7" class="node">
<title>[root] var.network_name</title>
<ellipse fill="none" stroke="#000000" cx="759.7768" cy="-18" rx="98.0466" ry="18"/>
<text text-anchor="middle" x="759.7768" y="-13.8" font-family="Times,serif" font-size="14.00" fill="#000000">[root] var.network_name</text>
</g>
<!-- [root] google_compute_network.our_development_network&#45;&gt;[root] var.network_name -->
<g id="edge4" class="edge">
<title>[root] google_compute_network.our_development_network&#45;&gt;[root] var.network_name</title>
<path fill="none" stroke="#000000" d="M681.2727,-71.8314C694.8832,-62.4984 711.6133,-51.0264 726.127,-41.0742"/>
<polygon fill="#000000" stroke="#000000" points="728.108,-43.9596 734.376,-35.4177 724.1493,-38.1865 728.108,-43.9596"/>
</g>
<!-- [root] google_compute_subnetwork.dev&#45;subnet&#45;&gt;[root] google_compute_network.our_development_network -->
<g id="edge5" class="edge">
<title>[root] google_compute_subnetwork.dev&#45;subnet&#45;&gt;[root] google_compute_network.our_development_network</title>
<path fill="none" stroke="#000000" d="M870.474,-143.9243C829.8273,-133.7626 778.9484,-121.0429 736.8146,-110.5094"/>
<polygon fill="#000000" stroke="#000000" points="737.4099,-107.0506 726.8595,-108.0207 735.7121,-113.8416 737.4099,-107.0506"/>
</g>
<!-- [root] var.gcp_ip_cidr_range -->
<g id="node8" class="node">
<title>[root] var.gcp_ip_cidr_range</title>
<ellipse fill="none" stroke="#000000" cx="942.7768" cy="-90" rx="111.5447" ry="18"/>
<text text-anchor="middle" x="942.7768" y="-85.8" font-family="Times,serif" font-size="14.00" fill="#000000">[root] var.gcp_ip_cidr_range</text>
</g>
<!-- [root] google_compute_subnetwork.dev&#45;subnet&#45;&gt;[root] var.gcp_ip_cidr_range -->
<g id="edge6" class="edge">
<title>[root] google_compute_subnetwork.dev&#45;subnet&#45;&gt;[root] var.gcp_ip_cidr_range</title>
<path fill="none" stroke="#000000" d="M942.7768,-143.8314C942.7768,-136.131 942.7768,-126.9743 942.7768,-118.4166"/>
<polygon fill="#000000" stroke="#000000" points="946.2769,-118.4132 942.7768,-108.4133 939.2769,-118.4133 946.2769,-118.4132"/>
</g>
<!-- [root] var.subnet_names -->
<g id="node9" class="node">
<title>[root] var.subnet_names</title>
<ellipse fill="none" stroke="#000000" cx="1167.7768" cy="-90" rx="95.65" ry="18"/>
<text text-anchor="middle" x="1167.7768" y="-85.8" font-family="Times,serif" font-size="14.00" fill="#000000">[root] var.subnet_names</text>
</g>
<!-- [root] google_compute_subnetwork.dev&#45;subnet&#45;&gt;[root] var.subnet_names -->
<g id="edge7" class="edge">
<title>[root] google_compute_subnetwork.dev&#45;subnet&#45;&gt;[root] var.subnet_names</title>
<path fill="none" stroke="#000000" d="M999.2634,-143.9243C1032.9115,-133.1569 1075.5349,-119.5174 1109.4952,-108.6501"/>
<polygon fill="#000000" stroke="#000000" points="1110.8244,-111.8997 1119.2819,-105.5184 1108.6909,-105.2327 1110.8244,-111.8997"/>
</g>
<!-- [root] google_container_cluster.test -->
<g id="node5" class="node">
<title>[root] google_container_cluster.test</title>
<polygon fill="none" stroke="#000000" points="1032.4568,-252 853.0968,-252 853.0968,-216 1032.4568,-216 1032.4568,-252"/>
<text text-anchor="middle" x="942.7768" y="-229.8" font-family="Times,serif" font-size="14.00" fill="#000000">google_container_cluster.test</text>
</g>
<!-- [root] google_container_cluster.test&#45;&gt;[root] google_compute_subnetwork.dev&#45;subnet -->
<g id="edge8" class="edge">
<title>[root] google_container_cluster.test&#45;&gt;[root] google_compute_subnetwork.dev&#45;subnet</title>
<path fill="none" stroke="#000000" d="M942.7768,-215.8314C942.7768,-208.131 942.7768,-198.9743 942.7768,-190.4166"/>
<polygon fill="#000000" stroke="#000000" points="946.2769,-190.4132 942.7768,-180.4133 939.2769,-190.4133 946.2769,-190.4132"/>
</g>
<!-- [root] meta.count&#45;boundary (count boundary fixup) -->
<g id="node10" class="node">
<title>[root] meta.count&#45;boundary (count boundary fixup)</title>
<ellipse fill="none" stroke="#000000" cx="767.7768" cy="-378" rx="191.6931" ry="18"/>
<text text-anchor="middle" x="767.7768" y="-373.8" font-family="Times,serif" font-size="14.00" fill="#000000">[root] meta.count&#45;boundary (count boundary fixup)</text>
</g>
<!-- [root] meta.count&#45;boundary (count boundary fixup)&#45;&gt;[root] google_container_cluster.test -->
<g id="edge9" class="edge">
<title>[root] meta.count&#45;boundary (count boundary fixup)&#45;&gt;[root] google_container_cluster.test</title>
<path fill="none" stroke="#000000" d="M799.5831,-360.0679C816.0493,-350.2294 836.1339,-337.34 852.7768,-324 866.2538,-313.1976 896.8323,-282.0272 918.6004,-259.3927"/>
<polygon fill="#000000" stroke="#000000" points="921.2123,-261.7258 925.6075,-252.0856 916.1599,-256.8809 921.2123,-261.7258"/>
</g>
<!-- [root] output.first_output -->
<g id="node11" class="node">
<title>[root] output.first_output</title>
<ellipse fill="none" stroke="#000000" cx="397.7768" cy="-306" rx="98.0985" ry="18"/>
<text text-anchor="middle" x="397.7768" y="-301.8" font-family="Times,serif" font-size="14.00" fill="#000000">[root] output.first_output</text>
</g>
<!-- [root] meta.count&#45;boundary (count boundary fixup)&#45;&gt;[root] output.first_output -->
<g id="edge10" class="edge">
<title>[root] meta.count&#45;boundary (count boundary fixup)&#45;&gt;[root] output.first_output</title>
<path fill="none" stroke="#000000" d="M684.2802,-361.752C621.5902,-349.5529 536.3777,-332.971 475.2077,-321.0676"/>
<polygon fill="#000000" stroke="#000000" points="475.7077,-317.5994 465.2233,-319.1247 474.3706,-324.4705 475.7077,-317.5994"/>
</g>
<!-- [root] output.opendj_config_store_ip -->
<g id="node12" class="node">
<title>[root] output.opendj_config_store_ip</title>
<ellipse fill="none" stroke="#000000" cx="140.7768" cy="-306" rx="140.554" ry="18"/>
<text text-anchor="middle" x="140.7768" y="-301.8" font-family="Times,serif" font-size="14.00" fill="#000000">[root] output.opendj_config_store_ip</text>
</g>
<!-- [root] meta.count&#45;boundary (count boundary fixup)&#45;&gt;[root] output.opendj_config_store_ip -->
<g id="edge11" class="edge">
<title>[root] meta.count&#45;boundary (count boundary fixup)&#45;&gt;[root] output.opendj_config_store_ip</title>
<path fill="none" stroke="#000000" d="M644.2104,-364.2412C547.8962,-353.4612 410.8087,-337.996 290.7768,-324 278.6484,-322.5858 265.9705,-321.0907 253.3442,-319.5908"/>
<polygon fill="#000000" stroke="#000000" points="253.5842,-316.0948 243.2406,-318.3884 252.7569,-323.0457 253.5842,-316.0948"/>
</g>
<!-- [root] output.opendj_cts_store_ip -->
<g id="node13" class="node">
<title>[root] output.opendj_cts_store_ip</title>
<ellipse fill="none" stroke="#000000" cx="1274.7768" cy="-306" rx="128.4836" ry="18"/>
<text text-anchor="middle" x="1274.7768" y="-301.8" font-family="Times,serif" font-size="14.00" fill="#000000">[root] output.opendj_cts_store_ip</text>
</g>
<!-- [root] meta.count&#45;boundary (count boundary fixup)&#45;&gt;[root] output.opendj_cts_store_ip -->
<g id="edge12" class="edge">
<title>[root] meta.count&#45;boundary (count boundary fixup)&#45;&gt;[root] output.opendj_cts_store_ip</title>
<path fill="none" stroke="#000000" d="M873.7519,-362.9503C962.1293,-350.3996 1087.1965,-332.6386 1174.0726,-320.3012"/>
<polygon fill="#000000" stroke="#000000" points="1174.7991,-323.7332 1184.2076,-318.8619 1173.8148,-316.8028 1174.7991,-323.7332"/>
</g>
<!-- [root] var.new_map -->
<g id="node14" class="node">
<title>[root] var.new_map</title>
<ellipse fill="none" stroke="#000000" cx="593.7768" cy="-306" rx="79.7058" ry="18"/>
<text text-anchor="middle" x="593.7768" y="-301.8" font-family="Times,serif" font-size="14.00" fill="#000000">[root] var.new_map</text>
</g>
<!-- [root] meta.count&#45;boundary (count boundary fixup)&#45;&gt;[root] var.new_map -->
<g id="edge13" class="edge">
<title>[root] meta.count&#45;boundary (count boundary fixup)&#45;&gt;[root] var.new_map</title>
<path fill="none" stroke="#000000" d="M725.2116,-360.3868C699.8531,-349.8936 667.6098,-336.5516 641.4055,-325.7084"/>
<polygon fill="#000000" stroke="#000000" points="642.6269,-322.4261 632.0485,-321.8365 639.9504,-328.8942 642.6269,-322.4261"/>
</g>
<!-- [root] var.new_var -->
<g id="node15" class="node">
<title>[root] var.new_var</title>
<ellipse fill="none" stroke="#000000" cx="767.7768" cy="-306" rx="75.838" ry="18"/>
<text text-anchor="middle" x="767.7768" y="-301.8" font-family="Times,serif" font-size="14.00" fill="#000000">[root] var.new_var</text>
</g>
<!-- [root] meta.count&#45;boundary (count boundary fixup)&#45;&gt;[root] var.new_var -->
<g id="edge14" class="edge">
<title>[root] meta.count&#45;boundary (count boundary fixup)&#45;&gt;[root] var.new_var</title>
<path fill="none" stroke="#000000" d="M767.7768,-359.8314C767.7768,-352.131 767.7768,-342.9743 767.7768,-334.4166"/>
<polygon fill="#000000" stroke="#000000" points="771.2769,-334.4132 767.7768,-324.4133 764.2769,-334.4133 771.2769,-334.4132"/>
</g>
<!-- [root] output.opendj_config_store_ip&#45;&gt;[root] google_compute_instance.opendj_config_store -->
<g id="edge15" class="edge">
<title>[root] output.opendj_config_store_ip&#45;&gt;[root] google_compute_instance.opendj_config_store</title>
<path fill="none" stroke="#000000" d="M239.8209,-293.1278C324.9638,-282.0623 449.0065,-265.9413 546.0721,-253.3262"/>
<polygon fill="#000000" stroke="#000000" points="546.8076,-256.7602 556.2731,-252.0005 545.9054,-249.8186 546.8076,-256.7602"/>
</g>
<!-- [root] output.opendj_cts_store_ip&#45;&gt;[root] google_compute_instance.opendj_cts_store -->
<g id="edge16" class="edge">
<title>[root] output.opendj_cts_store_ip&#45;&gt;[root] google_compute_instance.opendj_cts_store</title>
<path fill="none" stroke="#000000" d="M1251.5408,-288.2022C1239.7669,-279.1839 1225.2929,-268.0975 1212.5095,-258.3059"/>
<polygon fill="#000000" stroke="#000000" points="1214.4655,-255.3953 1204.3984,-252.0931 1210.2089,-260.9525 1214.4655,-255.3953"/>
</g>
<!-- [root] provider.google (close) -->
<g id="node16" class="node">
<title>[root] provider.google (close)</title>
<ellipse fill="none" stroke="#000000" cx="1013.7768" cy="-306" rx="114.4592" ry="18"/>
<text text-anchor="middle" x="1013.7768" y="-301.8" font-family="Times,serif" font-size="14.00" fill="#000000">[root] provider.google (close)</text>
</g>
<!-- [root] provider.google (close)&#45;&gt;[root] google_compute_instance.opendj_config_store -->
<g id="edge17" class="edge">
<title>[root] provider.google (close)&#45;&gt;[root] google_compute_instance.opendj_config_store</title>
<path fill="none" stroke="#000000" d="M948.0666,-291.1689C900.8609,-280.5143 836.6559,-266.0229 784.7009,-254.2963"/>
<polygon fill="#000000" stroke="#000000" points="785.3413,-250.8529 774.816,-252.0653 783.8,-257.6811 785.3413,-250.8529"/>
</g>
<!-- [root] provider.google (close)&#45;&gt;[root] google_compute_instance.opendj_cts_store -->
<g id="edge18" class="edge">
<title>[root] provider.google (close)&#45;&gt;[root] google_compute_instance.opendj_cts_store</title>
<path fill="none" stroke="#000000" d="M1053.3535,-288.937C1076.0886,-279.135 1104.897,-266.7147 1129.3681,-256.1642"/>
<polygon fill="#000000" stroke="#000000" points="1131.0624,-259.2452 1138.8596,-252.0721 1128.291,-252.8172 1131.0624,-259.2452"/>
</g>
<!-- [root] provider.google (close)&#45;&gt;[root] google_container_cluster.test -->
<g id="edge19" class="edge">
<title>[root] provider.google (close)&#45;&gt;[root] google_container_cluster.test</title>
<path fill="none" stroke="#000000" d="M996.2262,-288.2022C987.6719,-279.5275 977.2307,-268.9391 967.854,-259.4304"/>
<polygon fill="#000000" stroke="#000000" points="970.1322,-256.756 960.6186,-252.0931 965.148,-261.671 970.1322,-256.756"/>
</g>
<!-- [root] root -->
<g id="node17" class="node">
<title>[root] root</title>
<ellipse fill="none" stroke="#000000" cx="877.7768" cy="-450" rx="46.8976" ry="18"/>
<text text-anchor="middle" x="877.7768" y="-445.8" font-family="Times,serif" font-size="14.00" fill="#000000">[root] root</text>
</g>
<!-- [root] root&#45;&gt;[root] meta.count&#45;boundary (count boundary fixup) -->
<g id="edge20" class="edge">
<title>[root] root&#45;&gt;[root] meta.count&#45;boundary (count boundary fixup)</title>
<path fill="none" stroke="#000000" d="M853.9084,-434.3771C839.3003,-424.8154 820.3234,-412.3941 803.9014,-401.6452"/>
<polygon fill="#000000" stroke="#000000" points="805.3687,-398.4225 795.0848,-395.8744 801.5351,-404.2794 805.3687,-398.4225"/>
</g>
<!-- [root] root&#45;&gt;[root] provider.google (close) -->
<g id="edge21" class="edge">
<title>[root] root&#45;&gt;[root] provider.google (close)</title>
<path fill="none" stroke="#000000" d="M909.5173,-436.7603C928.5794,-427.5544 952.2573,-413.7523 968.7768,-396 985.4981,-378.0309 997.4202,-352.6746 1004.7741,-333.4534"/>
<polygon fill="#000000" stroke="#000000" points="1008.0716,-334.6268 1008.2045,-324.0327 1001.4941,-332.2316 1008.0716,-334.6268"/>
</g>
</g>
</svg>
