<?xml version="1.0" encoding="UTF-8" standalone="no"?>
<!DOCTYPE svg PUBLIC "-//W3C//DTD SVG 1.1//EN"
 "http://www.w3.org/Graphics/SVG/1.1/DTD/svg11.dtd">
<!-- Generated by graphviz version 2.40.1 (20161225.0304)
 -->
<!-- Title: %3 Pages: 1 -->
<svg width="763pt" height="404pt"
 viewBox="0.00 0.00 763.45 404.00" xmlns="http://www.w3.org/2000/svg" xmlns:xlink="http://www.w3.org/1999/xlink">
<g id="graph0" class="graph" transform="scale(1 1) rotate(0) translate(4 400)">
<title>%3</title>
<polygon fill="#ffffff" stroke="transparent" points="-4,4 -4,-400 759.4521,-400 759.4521,4 -4,4"/>
<!-- [root] google_compute_instance.opendj_config_store -->
<g id="node1" class="node">
<title>[root] google_compute_instance.opendj_config_store</title>
<polygon fill="none" stroke="#000000" points="279.9956,-252 .0015,-252 .0015,-216 279.9956,-216 279.9956,-252"/>
<text text-anchor="middle" x="139.9985" y="-229.8" font-family="Times,serif" font-size="14.00" fill="#000000">google_compute_instance.opendj_config_store</text>
</g>
<!-- [root] google_compute_subnetwork.dev&#45;subnet -->
<g id="node4" class="node">
<title>[root] google_compute_subnetwork.dev&#45;subnet</title>
<polygon fill="none" stroke="#000000" points="551.0614,-180 304.9356,-180 304.9356,-144 551.0614,-144 551.0614,-180"/>
<text text-anchor="middle" x="427.9985" y="-157.8" font-family="Times,serif" font-size="14.00" fill="#000000">google_compute_subnetwork.dev&#45;subnet</text>
</g>
<!-- [root] google_compute_instance.opendj_config_store&#45;&gt;[root] google_compute_subnetwork.dev&#45;subnet -->
<g id="edge1" class="edge">
<title>[root] google_compute_instance.opendj_config_store&#45;&gt;[root] google_compute_subnetwork.dev&#45;subnet</title>
<path fill="none" stroke="#000000" d="M212.3014,-215.9243C252.948,-205.7626 303.827,-193.0429 345.9608,-182.5094"/>
<polygon fill="#000000" stroke="#000000" points="347.0633,-185.8416 355.9158,-180.0207 345.3655,-179.0506 347.0633,-185.8416"/>
</g>
<!-- [root] google_compute_instance.opendj_cts_store -->
<g id="node2" class="node">
<title>[root] google_compute_instance.opendj_cts_store</title>
<polygon fill="none" stroke="#000000" points="558.0478,-252 297.9493,-252 297.9493,-216 558.0478,-216 558.0478,-252"/>
<text text-anchor="middle" x="427.9985" y="-229.8" font-family="Times,serif" font-size="14.00" fill="#000000">google_compute_instance.opendj_cts_store</text>
</g>
<!-- [root] google_compute_instance.opendj_cts_store&#45;&gt;[root] google_compute_subnetwork.dev&#45;subnet -->
<g id="edge2" class="edge">
<title>[root] google_compute_instance.opendj_cts_store&#45;&gt;[root] google_compute_subnetwork.dev&#45;subnet</title>
<path fill="none" stroke="#000000" d="M427.9985,-215.8314C427.9985,-208.131 427.9985,-198.9743 427.9985,-190.4166"/>
<polygon fill="#000000" stroke="#000000" points="431.4986,-190.4132 427.9985,-180.4133 424.4986,-190.4133 431.4986,-190.4132"/>
</g>
<!-- [root] google_compute_network.our_development_network -->
<g id="node3" class="node">
<title>[root] google_compute_network.our_development_network</title>
<polygon fill="none" stroke="#000000" points="586.034,-108 269.963,-108 269.963,-72 586.034,-72 586.034,-108"/>
<text text-anchor="middle" x="427.9985" y="-85.8" font-family="Times,serif" font-size="14.00" fill="#000000">google_compute_network.our_development_network</text>
</g>
<!-- [root] provider.google -->
<g id="node6" class="node">
<title>[root] provider.google</title>
<polygon fill="none" stroke="#000000" points="427.9985,-36 334.7121,-18 427.9985,0 521.2849,-18 427.9985,-36"/>
<text text-anchor="middle" x="427.9985" y="-13.8" font-family="Times,serif" font-size="14.00" fill="#000000">provider.google</text>
</g>
<!-- [root] google_compute_network.our_development_network&#45;&gt;[root] provider.google -->
<g id="edge3" class="edge">
<title>[root] google_compute_network.our_development_network&#45;&gt;[root] provider.google</title>
<path fill="none" stroke="#000000" d="M427.9985,-71.8314C427.9985,-64.131 427.9985,-54.9743 427.9985,-46.4166"/>
<polygon fill="#000000" stroke="#000000" points="431.4986,-46.4132 427.9985,-36.4133 424.4986,-46.4133 431.4986,-46.4132"/>
</g>
<!-- [root] google_compute_subnetwork.dev&#45;subnet&#45;&gt;[root] google_compute_network.our_development_network -->
<g id="edge4" class="edge">
<title>[root] google_compute_subnetwork.dev&#45;subnet&#45;&gt;[root] google_compute_network.our_development_network</title>
<path fill="none" stroke="#000000" d="M427.9985,-143.8314C427.9985,-136.131 427.9985,-126.9743 427.9985,-118.4166"/>
<polygon fill="#000000" stroke="#000000" points="431.4986,-118.4132 427.9985,-108.4133 424.4986,-118.4133 431.4986,-118.4132"/>
</g>
<!-- [root] google_container_cluster.ulti -->
<g id="node5" class="node">
<title>[root] google_container_cluster.ulti</title>
<polygon fill="none" stroke="#000000" points="755.4058,-252 576.5913,-252 576.5913,-216 755.4058,-216 755.4058,-252"/>
<text text-anchor="middle" x="665.9985" y="-229.8" font-family="Times,serif" font-size="14.00" fill="#000000">google_container_cluster.ulti</text>
</g>
<!-- [root] google_container_cluster.ulti&#45;&gt;[root] google_compute_subnetwork.dev&#45;subnet -->
<g id="edge5" class="edge">
<title>[root] google_container_cluster.ulti&#45;&gt;[root] google_compute_subnetwork.dev&#45;subnet</title>
<path fill="none" stroke="#000000" d="M606.2483,-215.9243C573.2879,-205.9531 532.1857,-193.5188 497.759,-183.104"/>
<polygon fill="#000000" stroke="#000000" points="498.3585,-179.6288 487.7734,-180.0831 496.3315,-186.3289 498.3585,-179.6288"/>
</g>
<!-- [root] meta.count&#45;boundary (count boundary fixup) -->
<g id="node7" class="node">
<title>[root] meta.count&#45;boundary (count boundary fixup)</title>
<ellipse fill="none" stroke="#000000" cx="240.9985" cy="-306" rx="191.6931" ry="18"/>
<text text-anchor="middle" x="240.9985" y="-301.8" font-family="Times,serif" font-size="14.00" fill="#000000">[root] meta.count&#45;boundary (count boundary fixup)</text>
</g>
<!-- [root] meta.count&#45;boundary (count boundary fixup)&#45;&gt;[root] google_compute_instance.opendj_config_store -->
<g id="edge6" class="edge">
<title>[root] meta.count&#45;boundary (count boundary fixup)&#45;&gt;[root] google_compute_instance.opendj_config_store</title>
<path fill="none" stroke="#000000" d="M215.7725,-288.0171C202.9985,-278.9109 187.3177,-267.7324 173.5415,-257.9118"/>
<polygon fill="#000000" stroke="#000000" points="175.4275,-254.958 165.253,-252.0032 171.3641,-260.658 175.4275,-254.958"/>
</g>
<!-- [root] meta.count&#45;boundary (count boundary fixup)&#45;&gt;[root] google_compute_instance.opendj_cts_store -->
<g id="edge7" class="edge">
<title>[root] meta.count&#45;boundary (count boundary fixup)&#45;&gt;[root] google_compute_instance.opendj_cts_store</title>
<path fill="none" stroke="#000000" d="M286.7439,-288.3868C312.3755,-278.518 344.552,-266.1291 371.7187,-255.6693"/>
<polygon fill="#000000" stroke="#000000" points="373.0254,-258.9167 381.1,-252.0572 370.5102,-252.3841 373.0254,-258.9167"/>
</g>
<!-- [root] meta.count&#45;boundary (count boundary fixup)&#45;&gt;[root] google_container_cluster.ulti -->
<g id="edge8" class="edge">
<title>[root] meta.count&#45;boundary (count boundary fixup)&#45;&gt;[root] google_container_cluster.ulti</title>
<path fill="none" stroke="#000000" d="M337.7087,-290.3888C400.1349,-280.2152 483.3641,-266.4722 566.5515,-252.0644"/>
<polygon fill="#000000" stroke="#000000" points="567.1768,-255.5083 576.4312,-250.35 565.98,-248.6113 567.1768,-255.5083"/>
</g>
<!-- [root] provider.google (close) -->
<g id="node8" class="node">
<title>[root] provider.google (close)</title>
<ellipse fill="none" stroke="#000000" cx="564.9985" cy="-306" rx="114.4592" ry="18"/>
<text text-anchor="middle" x="564.9985" y="-301.8" font-family="Times,serif" font-size="14.00" fill="#000000">[root] provider.google (close)</text>
</g>
<!-- [root] provider.google (close)&#45;&gt;[root] google_compute_instance.opendj_config_store -->
<g id="edge9" class="edge">
<title>[root] provider.google (close)&#45;&gt;[root] google_compute_instance.opendj_config_store</title>
<path fill="none" stroke="#000000" d="M487.047,-292.7941C422.5052,-281.86 329.8322,-266.16 256.484,-253.734"/>
<polygon fill="#000000" stroke="#000000" points="256.7116,-250.2228 246.2674,-252.0032 255.5423,-257.1244 256.7116,-250.2228"/>
</g>
<!-- [root] provider.google (close)&#45;&gt;[root] google_compute_instance.opendj_cts_store -->
<g id="edge10" class="edge">
<title>[root] provider.google (close)&#45;&gt;[root] google_compute_instance.opendj_cts_store</title>
<path fill="none" stroke="#000000" d="M532.1836,-288.7542C514.0057,-279.2009 491.1763,-267.2029 471.5242,-256.8748"/>
<polygon fill="#000000" stroke="#000000" points="472.9377,-253.6638 462.4575,-252.1098 469.6812,-259.8602 472.9377,-253.6638"/>
</g>
<!-- [root] provider.google (close)&#45;&gt;[root] google_container_cluster.ulti -->
<g id="edge11" class="edge">
<title>[root] provider.google (close)&#45;&gt;[root] google_container_cluster.ulti</title>
<path fill="none" stroke="#000000" d="M589.7059,-288.3868C602.4737,-279.2851 618.2482,-268.0399 632.1337,-258.1412"/>
<polygon fill="#000000" stroke="#000000" points="634.3805,-260.8379 640.4916,-252.1832 630.3171,-255.138 634.3805,-260.8379"/>
</g>
<!-- [root] root -->
<g id="node9" class="node">
<title>[root] root</title>
<ellipse fill="none" stroke="#000000" cx="402.9985" cy="-378" rx="46.8976" ry="18"/>
<text text-anchor="middle" x="402.9985" y="-373.8" font-family="Times,serif" font-size="14.00" fill="#000000">[root] root</text>
</g>
<!-- [root] root&#45;&gt;[root] meta.count&#45;boundary (count boundary fixup) -->
<g id="edge12" class="edge">
<title>[root] root&#45;&gt;[root] meta.count&#45;boundary (count boundary fixup)</title>
<path fill="none" stroke="#000000" d="M372.1463,-364.2879C348.9063,-353.959 316.5862,-339.5945 289.8466,-327.7102"/>
<polygon fill="#000000" stroke="#000000" points="291.2048,-324.4838 280.6452,-323.6207 288.3618,-330.8805 291.2048,-324.4838"/>
</g>
<!-- [root] root&#45;&gt;[root] provider.google (close) -->
<g id="edge13" class="edge">
<title>[root] root&#45;&gt;[root] provider.google (close)</title>
<path fill="none" stroke="#000000" d="M433.8508,-364.2879C457.4193,-353.813 490.3263,-339.1876 517.281,-327.2078"/>
<polygon fill="#000000" stroke="#000000" points="518.8252,-330.3517 526.5418,-323.0919 515.9822,-323.955 518.8252,-330.3517"/>
</g>
</g>
</svg>
